<?xml version="1.0" encoding="UTF-8"?>
<svg width="12px" height="12px" viewBox="0 0 12 12" version="1.1" xmlns="http://www.w3.org/2000/svg" xmlns:xlink="http://www.w3.org/1999/xlink">
    <!-- Generator: Sketch 49.3 (51167) - http://www.bohemiancoding.com/sketch -->
    <title>Android / Icons / algo</title>
    <desc>Created with Sketch.</desc>
    <defs></defs>
    <g id="Symbols" stroke="none" stroke-width="1" fill="none" fill-rule="evenodd" opacity="0.699999988">
        <g id="Android-/-Table-/-Header-/-Algo-T1" transform="translate(-16.000000, -10.000000)" fill="#FFFFFF">
            <g id="Header">
                <g id="bar">
                    <g id="Android-/-Icons-/-algo" transform="translate(10.000000, 4.000000)">
                        <path d="M15.9497475,14.5355339 L16.9497475,15.5355339 L15.5355339,16.9497475 L14.5355339,15.9497475 L13,16.5857864 L13,18 L11,18 L11,16.5857864 L9.46446609,15.9497475 L8.46446609,16.9497475 L7.05025253,15.5355339 L8.05025253,14.5355339 L7.41421356,13 L6,13 L6,11 L7.41421356,11 L8.05025253,9.46446609 L7.05025253,8.46446609 L8.46446609,7.05025253 L9.46446609,8.05025253 L11,7.41421356 L11,6 L13,6 L13,7.41421356 L14.5355339,8.05025253 L15.5355339,7.05025253 L16.9497475,8.46446609 L15.9497475,9.46446609 L16.5857864,11 L18,11 L18,13 L16.5857864,13 L15.9497475,14.5355339 Z M12,9 L9.87867966,9.87867966 L9,12 L9.87867966,14.1213203 L12,15 L14.1213203,14.1213203 L15,12 L14.1213203,9.87867966 L12,9 Z" id="Gear-4" transform="translate(12.000000, 12.000000) rotate(22.500000) translate(-12.000000, -12.000000) "></path>
                    </g>
                </g>
            </g>
        </g>
    </g>
</svg>