<svg xmlns="http://www.w3.org/2000/svg" xmlns:xlink="http://www.w3.org/1999/xlink" width="21" height="15" viewBox="0 0 21 15">
  <defs>
    <path id="a" d="M7.14229349,6.50893403 C7.2465674,6.15509831 7.40525021,5.82457876 7.6086582,5.5270591 C9.99262049,5.65080843 11.7788925,6.21666951 13.9990091,7.58411261 C13.9902633,7.95494534 13.9238398,8.31150462 13.8083637,8.64516551 C11.4426695,7.13037612 9.6949326,6.58296124 7.14229349,6.50893403 Z"/>
  </defs>
  <g fill="none" fill-rule="evenodd">
    <rect width="21" height="15" fill="#229F4A" rx="2"/>
    <polygon fill="#F8E23D" points="10.5 2 18 7.5 10.5 13 3 7.5"/>
    <circle cx="10.5" cy="7.5" r="3.5" fill="#032A74"/>
    <path fill="#91A1C3" d="M9,9 L9,10 L10,10 L10,9 L9,9 L9,9 Z M11,9 L11,10 L12,10 L12,9 L11,9 L11,9 Z M8,7 L8,8 L9,8 L9,7 L8,7 L8,7 Z"/>
    <use fill="#C8D0E0" xlink:href="#a"/>
  </g>
</svg>
