<svg xmlns="http://www.w3.org/2000/svg" width="21" height="15" viewBox="0 0 21 15">
  <g fill="none" fill-rule="evenodd">
    <rect width="9" height="15" x="6" fill="#FFFFFF"/>
    <path fill="#E82E2E" d="M1.99791312 0C.894496173 0 0 .893397331 0 1.99188419L0 13.0081158C0 14.1082031.898260623 15 1.99791312 15L6 15 6 0 1.99791312 0zM15 0L15 15 19.0020869 15C20.1055038 15 21 14.1066027 21 13.0081158L21 1.99188419C21 .891796927 20.1017394 0 19.0020869 0L15 0z"/>
    <polygon fill="#E82E2E" points="9.5 5 10 5 10.5 4 11 5 11.5 5 11.5 7.5 12.5 6 14 7 13 9 12 9 12 10 11 10 11 11 10 11 10 10 9 10 9 9 8 9 7 7 8.5 6 9.5 7.5"/>
  </g>
</svg>
