<svg xmlns="http://www.w3.org/2000/svg" width="21" height="15" viewBox="0 0 21 15">
  <g fill="none" fill-rule="evenodd">
    <path fill="#FFFFFF" d="M0.691683685,0.484178579 C1.04118983,0.182591931 1.49656191,0 1.99456145,0 L19.0054385,0 C20.0976562,0 21,0.891796927 21,1.99188419 L21,7 L10,7 L0.691683685,0.484178579 Z M0,1.99188419 L0,7 L0,1.99188419 Z M19.0054385,15 L1.99456145,15 L19.0054385,15 Z"/>
    <path fill="#D82D37" d="M21,13.0081158 C21,14.1066027 20.1070044,15 19.0054385,15 L1.99456145,15 C0.90234375,15 0,14.1082031 0,13.0081158 L0,7 L21,7 L21,13.0081158 Z"/>
    <path fill="#003399" d="M0.652324314,14.4781405 C0.252621095,14.1139446 0,13.5901868 0,13.0081158 L0,1.99188419 C0,1.3900049 0.268088622,0.849696085 0.691683685,0.484178579 L10,7 L0.652324314,14.4781405 Z"/>
  </g>
</svg>
