<svg xmlns="http://www.w3.org/2000/svg" width="21" height="15" viewBox="0 0 21 15">
  <g fill="none" fill-rule="evenodd">
    <rect width="21" height="15" fill="#003399" rx="2"/>
    <path fill="#FFFFFF" d="M8,4.23529411 L8,1 L13,1 L13,4.2352941 L17.9999999,1.00000001 L19.0000001,0.999999962 C19.5522849,0.999999948 20.0000001,1.44771519 20.0000001,1.99999994 C20.0000001,1.99999995 20.0000001,1.99999995 20.0000001,1.99999996 L20.0000001,2.99999997 L16.909091,5 L20,5 L20,10 L16.9090909,10 L20,12 L20,12.9910681 C20,13.5433529 19.5522847,13.9910681 19,13.9910681 L18,13.9910681 L13,10.758401 L13,14 L8,14 L8,10.7647059 L3,14 L2,14 C1.44771525,14 1,13.5522847 1,13 L1,12 L4.09090908,10 L1,10 L1,5 L4.09342094,5 L1.00000002,3 L1,1.99999996 C0.999999994,1.44771521 1.44771524,0.999999957 1.99999999,0.999999951 C1.99999999,0.999999951 2,0.999999951 2,0.999999951 L2.99999997,0.999999962 L8,4.23529411 Z"/>
    <path fill="#C7152A" d="M8,5 L5.50000004,5 L0.999999967,1.99999994 C0.999999967,1.45318601 1.4464309,1.00000001 1.99713137,1.00000002 L2.00000002,1.00000002 L8,5 Z M5.5,10 L8,10 L1.9999997,14.0000002 C1.44771512,14.0000002 1,13.5468141 1,13.0028687 L1,13 L5.5,10 Z M13,10 L15.5,10 L20,13 C20,13.546814 19.5535691,14 19.0028687,14 L19,14 L13,10 Z M15.5,5 L13,5 L19,1 L19.0028687,1 C19.5535691,1 20,1.45318604 20,2 L15.5,5 Z M9,1 L12,1 L12,6 L20,6 L20,9 L12,9 L12,14 L9,14 L9,9 L1,9 L1,6 L9,6 L9,1 Z"/>
  </g>
</svg>
