<svg xmlns="http://www.w3.org/2000/svg" width="21" height="15" viewBox="0 0 21 15">
  <g fill="none" fill-rule="evenodd">
    <rect width="21" height="15" fill="#E82E2E" rx="2"/>
    <path fill="#FFFFFF" d="M6.55198332,5.58733517 C10.4794372,4.31443144 11.4723899,7.37163122 11.7562018,8.24545917 C11.0352529,7.5131916 10.4452579,8.67157872 9.28732765,8.081351 C8.13007354,7.49146794 9.15517497,6.19221482 6.55008568,5.59048846 L6.54551561,5.59809758 C6.54551561,1.46124206 9.76180094,1.46124206 10.6807396,1.46124206 C9.76180094,1.92089267 10.6807396,2.8401939 9.76180094,3.75949513 C8.84430029,4.67735776 7.92679965,3.30415465 6.55198332,5.58733517 Z M0.756201832,6.51792888 C1.76970813,6.68641543 1.56640973,5.40233341 2.84998532,5.1989548 C4.13356091,4.99557618 4.06679002,6.65152336 6.53229201,5.60272513 C4.10166832,8.94951155 1.49963883,7.05828058 0.756201832,6.51792888 Z M5.62201307,11.3764667 C6.09538077,10.4642498 4.81180517,10.2608712 5.01510358,8.97678917 C5.21840198,7.69270715 6.77204687,8.26795092 6.53685588,5.59809758 C8.96747956,8.944884 6.36545007,10.836115 5.62201307,11.3764667 Z M3.89031241,0.37646666 C4.04332605,1.39281393 5.20125632,0.802586213 5.79125127,1.96097334 C6.38124621,3.11936046 4.78633463,3.56754833 6.54528965,5.58920872 C2.61245792,4.31085006 3.60634475,1.25077408 3.89031241,0.37646666 Z" transform="rotate(31 4.894 13.712)"/>
  </g>
</svg>
