<svg xmlns="http://www.w3.org/2000/svg" width="21" height="15" viewBox="0 0 21 15">
  <g fill="none" fill-rule="evenodd">
    <rect width="21" height="5" y="5" fill="#FFFFFF"/>
    <path fill="#003399" d="M0,10 L0,12.9951185 C0,14.102384 0.90234375,15 1.99456145,15 L19.0054385,15 C20.1070044,15 21,14.1061002 21,12.9951185 L21,10 L0,10 Z"/>
    <path fill="#E82E2E" d="M1.99456145,0 C0.892995579,0 0,0.893899798 0,2.0048815 L0,5 L21,5 L21,2.0048815 C21,0.897616023 20.0976562,0 19.0054385,0 L1.99456145,0 Z"/>
    <rect width="5" height="5" x="8" y="5" fill="#FFFFFF"/>
    <rect width="1" height="1" x="8" y="5" fill="#E82E2E"/>
    <rect width="1" height="1" x="10" y="5" fill="#E82E2E"/>
    <rect width="1" height="1" x="9" y="6" fill="#E82E2E"/>
    <rect width="1" height="1" x="11" y="6" fill="#E82E2E"/>
    <rect width="1" height="1" x="9" y="8" fill="#E82E2E"/>
    <rect width="1" height="1" x="11" y="8" fill="#E82E2E"/>
    <rect width="1" height="1" x="12" y="5" fill="#E82E2E"/>
    <rect width="1" height="1" x="8" y="7" fill="#E82E2E"/>
    <rect width="1" height="1" x="10" y="7" fill="#E82E2E"/>
    <rect width="1" height="1" x="12" y="7" fill="#E82E2E"/>
    <rect width="1" height="1" x="8" y="9" fill="#E82E2E"/>
    <rect width="1" height="1" x="10" y="9" fill="#E82E2E"/>
    <rect width="1" height="1" x="9" y="10" fill="#E82E2E"/>
    <rect width="1" height="1" x="10" y="10" fill="#FFFFFF"/>
    <polygon fill="#FFFFFF" points="12 10 13 10 12 11"/>
    <polygon fill="#FFFFFF" points="8 10 9 10 8 11" transform="matrix(-1 0 0 1 17 0)"/>
    <rect width="1" height="1" x="11" y="10" fill="#E82E2E"/>
    <rect width="1" height="1" x="12" y="9" fill="#E82E2E"/>
    <polygon fill="#003399" points="7 4 8 3 9 4 10.5 3 12 4 13 3 14 4 13 5 8 5"/>
  </g>
</svg>
