<svg xmlns="http://www.w3.org/2000/svg" width="21" height="15" viewBox="0 0 21 15">
  <g fill="none" fill-rule="evenodd">
    <rect width="21" height="9" y="3" fill="#FFFFFF"/>
    <path fill="#4E77DF" d="M0 12L0 13.5C0 14.3284271.674923137 15 1.49343323 15L19.5065668 15C20.3313672 15 21 14.3342028 21 13.5L21 12 0 12zM1.49343323 0C.668632833 0 0 .665797234 0 1.5L0 3 21 3 21 1.5C21 .671572875 20.3250769 0 19.5065668 0L1.49343323 0zM11 7L11 6 10 6 10 7 9 7 9 8 10 8 10 9 11 9 11 8 12 8 12 7 11 7zM7 6L9 6 10 5 10 4 10.0316162 4 11 4 11 5 12 6 14 6 13 7 13 8 14 9 12 9 11 10 11 11 10 11 10 10 9 9 7 9 8 8 8 7 7 6z"/>
  </g>
</svg>
