<svg xmlns="http://www.w3.org/2000/svg" width="21" height="15" viewBox="0 0 21 15">
  <g fill="none" fill-rule="evenodd">
    <rect width="21" height="15" fill="#FFFFFF" rx="2"/>
    <path fill="#252526" d="M17,4 L16,2 L14,3 L15,5 L17,4 Z M4,4 L5,2 L7,3 L6,5 L4,4 Z M17,11 L16,13 L14,12 L15,10 L17,11 Z M4,11 L5,13 L7,12 L6,10 L4,11 Z"/>
    <circle cx="10.5" cy="7.5" r="3.5" fill="#CD0027"/>
    <path fill="#0048AB" d="M14,7.5 C14,9.43299662 12.4329966,11 10.5,11 C8.56700338,11 7,9.43299662 7,7.5 C7,8.46649831 7.78350169,9.25 8.75,9.25 C9.71649831,9.25 10.5,8.46649831 10.5,7.5 C10.5,6.53350169 11.2835017,5.75 12.25,5.75 C13.2164983,5.75 14,6.53350169 14,7.5 Z"/>
  </g>
</svg>
