<svg xmlns="http://www.w3.org/2000/svg" width="21" height="15" viewBox="0 0 21 15">
  <g fill="none" fill-rule="evenodd">
    <rect width="7" height="15" x="7" fill="#FFFFFF"/>
    <path fill="#196F52" d="M2.00591905,0 C0.898080551,0 0,0.893397331 0,1.99188419 L0,13.0081158 C0,14.1082031 0.886554837,15 2.00591905,15 L7,15 L7,0 L2.00591905,0 Z"/>
    <circle cx="10.5" cy="6.5" r="1.5" fill="#9B7745"/>
    <path fill="#B2B593" d="M12.9499909,9 C12.7183558,10.1411202 11.709479,11 10.5,11 C9.29052104,11 8.28164422,10.1411202 8.05000906,9 L7,9 L7,8 L8.05000906,8 L9.08535285,8 C9.03007711,8.15638946 9,8.32468229 9,8.5 C9,9.32842712 9.67157288,10 10.5,10 C11.3284271,10 12,9.32842712 12,8.5 C12,8.32468229 11.9699229,8.15638946 11.9146471,8 L12.9499909,8 L14,8 L14,9 L12.9499909,9 Z"/>
    <path fill="#CF3946" d="M14,0 L14,15 L18.9940809,15 C20.1019194,15 21,14.1066027 21,13.0081158 L21,1.99188419 C21,0.891796927 20.1134452,0 18.9940809,0 L14,0 Z"/>
  </g>
</svg>
