<svg xmlns="http://www.w3.org/2000/svg" width="21" height="15" viewBox="0 0 21 15">
  <g fill="none" fill-rule="evenodd">
    <rect width="21" height="15" fill="#FFFFFF" rx="2"/>
    <path fill="#ED4C49" d="M11 3L21 3 21 2 11 2 11 3zM11 5L21 5 21 4 11 4 11 5zM11 7L21 7 21 6 11 6 11 7zM0 9L21 9 21 8 0 8 0 9zM0 11L21 11 21 10 0 10 0 11zM0 13L21 13 21 12 0 12 0 13zM2 0L19 0C19.7402824-1.35987663e-16 20.3866262.40219863 20.7324356 1L.267564391 1C.613373811.40219863 1.25971764 1.35987663e-16 2 0zM20.7324356 14C20.3866262 14.5978014 19.7402824 15 19 15L2 15C1.25971764 15 .613373811 14.5978014.267564391 14L20.7324356 14z"/>
    <g>
      <path fill="#003399" d="M1.99201702,0 C0.891856397,0 0,0.895857811 0,1.9973917 L0,9 L11,9 L11,0 L1.99201702,0 Z"/>
      <rect width="1" height="1" x="7" y="4" fill="#FFD128"/>
      <rect width="1" height="1" x="7" y="3" fill="#FFD128" opacity=".5"/>
      <rect width="1" height="1" x="7" y="5" fill="#FFD128" opacity=".5"/>
      <rect width="1" height="1" x="8" y="4" fill="#FFD128" opacity=".5"/>
      <rect width="1" height="1" x="6" y="4" fill="#FFD128" opacity=".5"/>
      <path fill="#FFD128" d="M6.66666667,1.19915666 C5.11307684,1.67963247 4,2.97607804 4,4.5 C4,6.02392196 5.11307684,7.32036753 6.66666667,7.80084334 C6.30175792,7.92982008 5.90907466,8 5.5,8 C3.56700338,8 2,6.43299662 2,4.5 C2,2.56700338 3.56700338,1 5.5,1 C5.90907466,1 6.30175792,1.07017992 6.66666667,1.19915666 Z"/>
    </g>
  </g>
</svg>
