<svg xmlns="http://www.w3.org/2000/svg" width="21" height="15" viewBox="0 0 21 15">
  <g fill="none" fill-rule="evenodd">
    <rect width="21" height="15" fill="#003399" rx="2"/>
    <rect width="9" height="7" x="1" y="1" fill="#FFFFFF" opacity=".7" rx="1"/>
    <path fill="#D72342" d="M5,5 L2,5 L2,4 L5,4 L5,2 L6,2 L6,4 L9,4 L9,5 L6,5 L6,7 L5,7 L5,5 L5,5 Z M7.5,6 L7.5,7 L9,7 L9,6 L7.5,6 L7.5,6 Z M7.5,2 L7.5,3 L9,3 L9,2 L7.5,2 L7.5,2 Z M2,6 L2,7 L3.5,7 L3.5,6 L2,6 L2,6 Z M2,2 L2,3 L3.5,3 L3.5,2 L2,2 L2,2 Z"/>
    <path fill="#FF5B77" d="M15,12 L15,13 L16,13 L16,12 L15,12 L15,12 Z M15,3 L15,4 L16,4 L16,3 L15,3 L15,3 Z M18,6 L18,7 L19,7 L19,6 L18,6 L18,6 Z M12,7 L12,8 L13,8 L13,7 L12,7 L12,7 Z"/>
  </g>
</svg>
