<svg xmlns="http://www.w3.org/2000/svg" width="21" height="15" viewBox="0 0 21 15">
  <g fill="none" fill-rule="evenodd">
    <path fill="#FFFFFF" d="M0,8 L0,12.9940809 C0,14.1019194 0.90234375,15 1.99456145,15 L19.0054385,15 C20.1070044,15 21,14.1134452 21,12.9940809 L21,8 L0,8 Z"/>
    <path fill="#D72342" d="M2,0 L19,0 C20.1045695,-2.02906125e-16 21,0.8954305 21,2 L21,8 L0,8 L0,2 C-1.3527075e-16,0.8954305 0.8954305,2.02906125e-16 2,0 Z"/>
    <circle cx="5" cy="4" r="3" fill="#FFFFFF"/>
    <circle cx="7" cy="4" r="3" fill="#D72342"/>
    <rect width="1" height="1" x="7" y="2" fill="#FFFFFF"/>
    <rect width="1" height="1" x="8.5" y="3" fill="#FFFFFF"/>
    <rect width="1" height="1" x="5.5" y="3" fill="#FFFFFF"/>
    <rect width="1" height="1" x="6" y="5" fill="#FFFFFF"/>
    <rect width="1" height="1" x="8" y="5" fill="#FFFFFF"/>
  </g>
</svg>
