<svg xmlns="http://www.w3.org/2000/svg" width="21" height="15" viewBox="0 0 21 15">
  <g fill="none" fill-rule="evenodd">
    <rect width="21" height="15" fill="#FFFFFF" rx="2"/>
    <path fill="#ED4C49" d="M11 3L21 3 21 2 11 2 11 3zM11 5L21 5 21 4 11 4 11 5zM11 7L21 7 21 6 11 6 11 7zM0 9L21 9 21 8 0 8 0 9zM0 11L21 11 21 10 0 10 0 11zM0 13L21 13 21 12 0 12 0 13zM2 0L19 0C19.7402824-1.35987663e-16 20.3866262.40219863 20.7324356 1L.267564391 1C.613373811.40219863 1.25971764 1.35987663e-16 2 0zM20.7324356 14C20.3866262 14.5978014 19.7402824 15 19 15L2 15C1.25971764 15 .613373811 14.5978014.267564391 14L20.7324356 14z"/>
    <path fill="#003399" d="M1.99201702,0 C0.891856397,0 0,0.895857811 0,1.9973917 L0,9 L11,9 L11,0 L1.99201702,0 Z"/>
    <path fill="#A7B6E6" d="M1,1 L1,2 L2,2 L2,1 L1,1 L1,1 Z M3,1 L3,2 L4,2 L4,1 L3,1 L3,1 Z M5,1 L5,2 L6,2 L6,1 L5,1 L5,1 Z M7,1 L7,2 L8,2 L8,1 L7,1 L7,1 Z M6,2 L6,3 L7,3 L7,2 L6,2 L6,2 Z M4,2 L4,3 L5,3 L5,2 L4,2 L4,2 Z M2,2 L2,3 L3,3 L3,2 L2,2 L2,2 Z M1,3 L1,4 L2,4 L2,3 L1,3 L1,3 Z M3,3 L3,4 L4,4 L4,3 L3,3 L3,3 Z M5,3 L5,4 L6,4 L6,3 L5,3 L5,3 Z M7,3 L7,4 L8,4 L8,3 L7,3 L7,3 Z M1,5 L1,6 L2,6 L2,5 L1,5 L1,5 Z M3,5 L3,6 L4,6 L4,5 L3,5 L3,5 Z M5,5 L5,6 L6,6 L6,5 L5,5 L5,5 Z M7,5 L7,6 L8,6 L8,5 L7,5 L7,5 Z M1,7 L1,8 L2,8 L2,7 L1,7 L1,7 Z M3,7 L3,8 L4,8 L4,7 L3,7 L3,7 Z M5,7 L5,8 L6,8 L6,7 L5,7 L5,7 Z M7,7 L7,8 L8,8 L8,7 L7,7 L7,7 Z M9,1 L9,2 L10,2 L10,1 L9,1 L9,1 Z M9,3 L9,4 L10,4 L10,3 L9,3 L9,3 Z M9,5 L9,6 L10,6 L10,5 L9,5 L9,5 Z M9,7 L9,8 L10,8 L10,7 L9,7 L9,7 Z M6,4 L6,5 L7,5 L7,4 L6,4 L6,4 Z M4,4 L4,5 L5,5 L5,4 L4,4 L4,4 Z M2,4 L2,5 L3,5 L3,4 L2,4 L2,4 Z M6,6 L6,7 L7,7 L7,6 L6,6 L6,6 Z M8,2 L8,3 L9,3 L9,2 L8,2 L8,2 Z M8,4 L8,5 L9,5 L9,4 L8,4 L8,4 Z M8,6 L8,7 L9,7 L9,6 L8,6 L8,6 Z M4,6 L4,7 L5,7 L5,6 L4,6 L4,6 Z M2,6 L2,7 L3,7 L3,6 L2,6 L2,6 Z"/>
  </g>
</svg>
