<svg xmlns="http://www.w3.org/2000/svg" width="21" height="15" viewBox="0 0 21 15">
  <g fill="none" fill-rule="evenodd">
    <path fill="#E82E2E" d="M4,0 L19,0 C20.1045695,-2.02906125e-16 21,0.8954305 21,2 L21,5 L4,5 L4,0 Z"/>
    <path fill="#003399" d="M4,10 L21,10 L21,13 C21,14.1045695 20.1045695,15 19,15 L4,15 L4,10 Z"/>
    <polygon fill="#FFFFFF" points="3 0 5 0 16 7.5 5 15 3 15"/>
    <rect width="9" height="5" x="12" y="5" fill="#FFFFFF"/>
    <path fill="#007A4D" d="M1.99456145,0 L3,0 L11.8,6 L21,6 L21,9 L11.8,9 L3,15 L1.99456145,15 C0.90234375,15 0,14.1082031 0,13.0081158 L0,1.99188419 C0,0.893397331 0.892995579,0 1.99456145,0 Z"/>
    <path fill="#FFD128" d="M0.0531106389,13.4645929 C0.0183947871,13.3180063 0,13.1651841 0,13.0081158 L0,1.99188419 C0,1.83478815 0.0182637536,1.68188665 0.052789385,1.53519292 L9,7.5 L0.0531106389,13.4645929 Z"/>
    <polygon fill="#000000" points="0 3 7 7.5 0 12"/>
  </g>
</svg>
