<svg xmlns="http://www.w3.org/2000/svg" width="24" height="24" viewBox="0 0 24 24">
  <g fill="none" fill-rule="evenodd">
    <path fill="#7A8A99" fill-opacity=".2" fill-rule="nonzero" d="M22,12 C22,6.4771525 17.5228475,2 12,2 C6.4771525,2 2,6.4771525 2,12 C2,17.5228475 6.4771525,22 12,22 C17.5228475,22 22,17.5228475 22,12 Z M0,12 C0,5.372583 5.372583,0 12,0 C18.627417,0 24,5.372583 24,12 C24,18.627417 18.627417,24 12,24 C5.372583,24 0,18.627417 0,12 Z"/>
    <path fill="#3D454D" d="M11.5,12.8662178 L11.5,14 L12.5,14 L12.5,12.8662178 C12.7989007,12.6933131 13,12.3701412 13,12 C13,11.4477153 12.5522847,11 12,11 C11.4477153,11 11,11.4477153 11,12 C11,12.3701412 11.2010993,12.6933131 11.5,12.8662178 Z M14,9 C15.1045695,9 16,9.8954305 16,11 L16,14 C16,15.1045695 15.1045695,16 14,16 L10,16 C8.8954305,16 8,15.1045695 8,14 L8,11 C8,9.8954305 8.8954305,9 10,9 L10,8 C10,6.8954305 10.8954305,6 12,6 C13.1045695,6 14,6.8954305 14,8 L14,9 Z M12,7 C11.4477153,7 11,7.44771525 11,8 L11,9 L13,9 L13,8 C13,7.44771525 12.5522847,7 12,7 Z"/>
  </g>
</svg>
