<svg xmlns="http://www.w3.org/2000/svg" width="24" height="24" viewBox="0 0 24 24">
  <path fill="#000000" d="M20,12.283913 C20,11.7316283 20.4477153,11.283913 21,11.283913 C21.5522847,11.283913 22,11.7316283 22,12.283913 L22,16.9920004 C22,19.7561224 19.7622878,22 17.0052166,22 L6.9947834,22 C4.2372184,22 2,19.7615475 2,17.0052166 L2,6.9947834 C2,4.23572784 4.240505,2 7.00338831,2 L15.0028001,2 C15.5550849,2 16.0028001,2.44771525 16.0028001,3 C16.0028001,3.55228475 15.5550849,4 15.0028001,4 L7.00338831,4 C5.34412,4 4,5.34125409 4,6.9947834 L4,17.0052166 C4,18.6572248 5.34203488,20 6.9947834,20 L17.0052166,20 C18.6564846,20 20,18.6527829 20,16.9920004 L20,12.283913 Z M8.70710678,11.2928932 L11,13.5857864 L20.2928932,4.29289322 C20.6834175,3.90236893 21.3165825,3.90236893 21.7071068,4.29289322 C22.0976311,4.68341751 22.0976311,5.31658249 21.7071068,5.70710678 L11.7071068,15.7071068 C11.3165825,16.0976311 10.6834175,16.0976311 10.2928932,15.7071068 L7.29289322,12.7071068 C6.90236893,12.3165825 6.90236893,11.6834175 7.29289322,11.2928932 C7.68341751,10.9023689 8.31658249,10.9023689 8.70710678,11.2928932 Z"/>
</svg>
